<svg width="45" height="61" viewBox="0 0 45 61" fill="none" xmlns="http://www.w3.org/2000/svg">
<path d="M14.2261 46.6218C14.2261 46.6218 11.9374 47.9528 15.8549 48.4032C20.6009 48.9446 23.0266 48.867 28.2567 47.8771C28.2567 47.8771 29.6318 48.7393 31.5521 49.4861C19.8275 54.511 5.01704 49.195 14.2261 46.6218Z" fill="#5382A1"/>
<path d="M12.7934 40.0645C12.7934 40.0645 10.2264 41.9646 14.1468 42.3701C19.2167 42.8932 23.2205 42.936 30.1485 41.6019C30.1485 41.6019 31.1068 42.5734 32.6136 43.1047C18.4378 47.2498 2.64856 43.4315 12.7934 40.0645Z" fill="#5382A1"/>
<path d="M24.8713 28.9414C27.7603 32.2675 24.1123 35.2605 24.1123 35.2605C24.1123 35.2605 31.4478 31.4737 28.0789 26.7317C24.9325 22.3096 22.5196 20.1123 35.582 12.5366C35.582 12.5366 15.0784 17.6575 24.8713 28.9414Z" fill="#E76F00"/>
<path d="M40.3781 51.4719C40.3781 51.4719 42.0718 52.8674 38.5128 53.9471C31.7452 55.9972 10.3453 56.6163 4.40052 54.0288C2.26352 53.0991 6.27101 51.809 7.53161 51.5382C8.84629 51.2532 9.59758 51.3063 9.59758 51.3063C7.22102 49.6321 -5.76355 54.5936 3.00206 56.0145C26.9072 59.8912 46.5788 54.2688 40.3781 51.4719Z" fill="#5382A1"/>
<path d="M15.3268 33.2705C15.3268 33.2705 4.44142 35.8559 11.472 36.7948C14.4405 37.1923 20.3582 37.1023 25.8704 36.6405C30.3752 36.2605 34.8986 35.4525 34.8986 35.4525C34.8986 35.4525 33.3102 36.1328 32.1609 36.9175C21.1071 39.8247 -0.246969 38.4722 5.90058 35.4985C11.0996 32.9854 15.3268 33.2705 15.3268 33.2705Z" fill="#5382A1"/>
<path d="M34.8536 44.1854C46.0904 38.3463 40.895 32.7351 37.2686 33.491C36.3798 33.676 35.9835 33.8363 35.9835 33.8363C35.9835 33.8363 36.3135 33.3194 36.9437 33.0957C44.1178 30.5735 49.6351 40.5345 34.6278 44.4797C34.6278 44.4797 34.8017 44.3244 34.8536 44.1854Z" fill="#5382A1"/>
<path d="M28.0789 0.303711C28.0789 0.303711 34.302 6.52891 22.1766 16.1015C12.4532 23.7804 19.9594 28.1587 22.1726 33.161C16.4969 28.0402 12.3317 23.5323 15.126 19.3367C19.2275 13.178 30.5898 10.1921 28.0789 0.303711Z" fill="#E76F00"/>
<path d="M16.4308 60.0079C27.2167 60.6983 43.7797 59.6248 44.172 54.5212C44.172 54.5212 43.4179 56.456 35.258 57.9925C26.052 59.7249 14.6977 59.5226 7.96338 58.4123C7.96338 58.4123 9.34199 59.5533 16.4308 60.0079Z" fill="#5382A1"/>
</svg>
