<svg width="61" height="61" viewBox="0 0 61 61" fill="none" xmlns="http://www.w3.org/2000/svg">
<path d="M51.672 0.25H9.672C4.70143 0.25 0.671997 4.27944 0.671997 9.25V51.25C0.671997 56.2206 4.70143 60.25 9.672 60.25H51.672C56.6426 60.25 60.672 56.2206 60.672 51.25V9.25C60.672 4.27944 56.6426 0.25 51.672 0.25Z" fill="#F7DF1E"/>
<path d="M38.6407 43.6094C39.8126 45.6016 41.4532 47.0078 44.1486 47.0078C46.4923 47.0078 48.0157 45.8359 48.0157 44.1953C48.0157 42.3203 46.4923 41.6172 43.9142 40.4453L42.5079 39.8594C38.4064 38.1016 35.7111 35.9922 35.7111 31.4219C35.7111 27.2031 38.8751 23.9219 43.9142 23.9219C47.547 23.9219 50.1251 25.2109 51.8829 28.4922L47.547 31.3047C46.6095 29.5469 45.5548 28.8438 43.9142 28.8438C42.2736 28.8438 41.2189 29.8984 41.2189 31.3047C41.2189 32.9453 42.2736 33.6484 44.7345 34.7031L46.1407 35.2891C50.9454 37.3984 53.6407 39.3906 53.6407 44.1953C53.6407 49.2344 49.6564 52.0469 44.2657 52.0469C38.9923 52.0469 35.5939 49.5859 33.9532 46.3047L38.6407 43.6094ZM18.7189 44.0781C19.6564 45.6016 20.3595 47.0078 22.3517 47.0078C24.2267 47.0078 25.3986 46.3047 25.3986 43.4922V24.0391H31.0236V43.2578C31.0236 49.1172 27.6251 51.6953 22.5861 51.6953C18.0157 51.6953 15.4376 49.3516 14.1486 46.5391L18.7189 44.0781Z" fill="black"/>
</svg>
