<svg width="28" height="60" viewBox="0 0 28 60" fill="none" xmlns="http://www.w3.org/2000/svg">
<path fill-rule="evenodd" clip-rule="evenodd" d="M15.4379 59.7532L13.8672 59.2164C13.8672 59.2164 14.059 51.2088 11.185 50.6342C9.26971 48.4116 11.4923 -43.6215 18.3887 50.3274C18.3887 50.3274 16.013 51.5148 15.5915 53.546C15.1315 55.5385 15.4379 59.7532 15.4379 59.7532Z" fill="white"/>
<path fill-rule="evenodd" clip-rule="evenodd" d="M15.4379 59.7532L13.8672 59.2164C13.8672 59.2164 14.059 51.2088 11.185 50.6342C9.26971 48.4116 11.4923 -43.6215 18.3887 50.3274C18.3887 50.3274 16.013 51.5148 15.5915 53.546C15.1315 55.5385 15.4379 59.7532 15.4379 59.7532Z" fill="#A6A385"/>
<path fill-rule="evenodd" clip-rule="evenodd" d="M16.281 52.0135C16.281 52.0135 30.0365 42.9708 26.8175 24.1577C23.7143 10.4798 16.396 5.99687 15.5913 4.27254C14.7103 3.04646 13.867 0.901123 13.867 0.901123L14.4421 38.9475C14.4421 38.9861 13.2542 50.5956 16.2814 52.0139" fill="white"/>
<path fill-rule="evenodd" clip-rule="evenodd" d="M16.281 52.0135C16.281 52.0135 30.0365 42.9708 26.8175 24.1577C23.7143 10.4798 16.396 5.99687 15.5913 4.27254C14.7103 3.04646 13.867 0.901123 13.867 0.901123L14.4421 38.9475C14.4421 38.9861 13.2542 50.5956 16.2814 52.0139" fill="#499D4A"/>
<path fill-rule="evenodd" clip-rule="evenodd" d="M13.0629 52.5108C13.0629 52.5108 0.15015 43.6982 0.916608 28.181C1.64445 12.6633 10.7635 5.03857 12.526 3.65928C13.6757 2.4332 13.7139 1.97316 13.7907 0.74707C14.5954 2.47139 14.4422 26.5335 14.5568 29.3684C14.9014 40.2882 13.9439 50.4423 13.0629 52.5108Z" fill="white"/>
<path fill-rule="evenodd" clip-rule="evenodd" d="M13.0629 52.5108C13.0629 52.5108 0.15015 43.6982 0.916608 28.181C1.64445 12.6633 10.7635 5.03857 12.526 3.65928C13.6757 2.4332 13.7139 1.97316 13.7907 0.74707C14.5954 2.47139 14.4422 26.5335 14.5568 29.3684C14.9014 40.2882 13.9439 50.4423 13.0629 52.5108Z" fill="#58AA50"/>
</svg>
