<svg width="88" height="61" viewBox="0 0 88 61" fill="none" xmlns="http://www.w3.org/2000/svg">
<path d="M27.3157 48.8617H24.9526C24.869 44.873 24.6389 41.1231 24.2626 37.6092H24.2416L20.6438 48.8617H18.8446L15.2682 37.6092H15.2477C14.9824 40.9829 14.8152 44.7337 14.7458 48.8617H12.5919C12.7307 43.8419 13.0795 39.1358 13.6371 34.7429H16.566L19.9748 45.1173H19.9958L23.4256 34.7429H26.228C26.8417 39.8883 27.2043 44.5949 27.3157 48.8617ZM37.564 38.4449C36.6019 43.6661 35.3324 47.4598 33.757 49.828C32.5296 51.6509 31.1848 52.5632 29.7204 52.5632C29.3299 52.5632 28.8482 52.4454 28.2774 52.2116V50.9527C28.5564 50.9928 28.8838 51.0157 29.2601 51.0157C29.9441 51.0157 30.4939 50.8275 30.9131 50.4504C31.4145 49.991 31.6652 49.4745 31.6652 48.9033C31.6652 48.5115 31.4697 47.7105 31.0798 46.4977L28.4865 38.4444H30.8081L32.6693 44.4675C33.0876 45.8351 33.262 46.7899 33.1922 47.3338C34.21 44.6154 34.921 41.6514 35.326 38.444H37.564V38.4449Z" fill="#5D87A1"/>
<path d="M69.0196 48.8618H62.307V34.743H64.5651V47.1238H69.0196V48.8618ZM60.5499 49.2029L57.9543 47.922C58.1845 47.733 58.4046 47.5284 58.6027 47.2914C59.706 45.9955 60.2562 44.079 60.2562 41.5405C60.2562 36.8696 58.4233 34.533 54.756 34.533C52.9578 34.533 51.555 35.1257 50.5518 36.3116C49.4494 37.6084 48.8992 39.5181 48.8992 42.0428C48.8992 44.5247 49.3869 46.3453 50.3627 47.5001C51.2554 48.5463 52.6012 49.07 54.4008 49.07C55.072 49.07 55.688 48.9878 56.2492 48.8221L59.6284 50.7893L60.5499 49.2029ZM52.1418 46.0366C51.5701 45.1169 51.2842 43.6402 51.2842 41.604C51.2842 38.0491 52.3642 36.2696 54.5263 36.2696C55.6565 36.2696 56.4849 36.6951 57.0146 37.5445C57.5854 38.4655 57.8726 39.9291 57.8726 41.9369C57.8726 45.521 56.7917 47.3133 54.6309 47.3133C53.5003 47.3138 52.6719 46.8896 52.1418 46.0366ZM47.9151 44.9484C47.9151 46.1457 47.4758 47.128 46.5982 47.8974C45.7196 48.6636 44.5415 49.0477 43.0652 49.0477C41.6843 49.0477 40.3454 48.6065 39.0495 47.7289L39.6564 46.5165C40.7715 47.075 41.7811 47.3526 42.6875 47.3526C43.5383 47.3526 44.2031 47.164 44.6853 46.79C45.1671 46.4147 45.4543 45.8882 45.4543 45.2224C45.4543 44.3836 44.8694 43.6666 43.7963 43.0662C42.8067 42.5228 40.8276 41.3866 40.8276 41.3866C39.755 40.6049 39.218 39.7656 39.218 38.3829C39.218 37.2385 39.6185 36.3148 40.4199 35.612C41.2222 34.9065 42.2574 34.5549 43.5264 34.5549C44.8369 34.5549 46.0283 34.906 47.1014 35.601L46.5571 36.8139C45.6392 36.4239 44.7333 36.2289 43.8396 36.2289C43.1159 36.2289 42.5569 36.4029 42.1683 36.7522C41.7765 37.1002 41.535 37.5454 41.535 38.0915C41.535 38.9263 42.1323 39.6523 43.2346 40.2647C44.2374 40.809 46.2658 41.9647 46.2658 41.9647C47.3658 42.7451 47.9151 43.5767 47.9151 44.9484Z" fill="#F8981D"/>
<path d="M71.8543 30.0139C70.489 29.9792 69.4319 30.1167 68.5446 30.492C68.2885 30.5943 67.8811 30.5943 67.8455 30.9181C67.9839 31.0551 67.9999 31.2761 68.12 31.4651C68.3245 31.8062 68.6812 32.2652 69.0068 32.5044C69.3643 32.7784 69.7232 33.0497 70.0995 33.2885C70.763 33.699 71.5151 33.9378 72.1617 34.347C72.5384 34.5849 72.9128 34.8927 73.29 35.1488C73.4754 35.2854 73.5941 35.5068 73.8348 35.5922V35.5402C73.7142 35.3867 73.68 35.1648 73.5617 34.994L73.0494 34.4999C72.5544 33.8351 71.9393 33.2547 71.2758 32.778C70.7297 32.4017 69.5351 31.8903 69.3136 31.261L69.2789 31.2263C69.6543 31.1911 70.0995 31.0551 70.4561 30.9505C71.0365 30.7975 71.5658 30.8322 72.1612 30.6793C72.4352 30.6108 72.7069 30.5249 72.9818 30.4404V30.2865C72.6731 29.9792 72.453 29.571 72.1283 29.2806C71.2598 28.5303 70.3027 27.7965 69.3136 27.1823C68.7839 26.8403 68.1026 26.6202 67.5387 26.3293C67.3355 26.2266 66.993 26.1759 66.8733 26.0051C66.5674 25.6297 66.3952 25.1357 66.1733 24.6914C65.6801 23.7539 65.2011 22.7137 64.7755 21.7223C64.4678 21.0574 64.2805 20.3935 63.9052 19.7784C62.1471 16.8787 60.2379 15.1225 57.3036 13.3987C56.673 13.0398 55.9227 12.8868 55.1213 12.6987L53.8413 12.6311C53.5683 12.5114 53.2947 12.1868 53.0564 12.0333C52.0828 11.4196 49.5763 10.0894 48.8603 11.8457C48.3991 12.9558 49.5425 14.0471 49.9353 14.6102C50.2252 15.001 50.601 15.4458 50.8038 15.8897C50.9239 16.1796 50.9577 16.4874 51.0778 16.7938C51.3508 17.5445 51.6061 18.3797 51.965 19.0802C52.1522 19.4373 52.3564 19.8126 52.5956 20.1359C52.7326 20.325 52.971 20.4085 53.023 20.7168C52.7851 21.0565 52.7664 21.5693 52.6299 21.9958C52.0162 23.9233 52.2559 26.3111 53.1258 27.7275C53.3979 28.154 54.0473 29.0929 54.9158 28.7331C55.6848 28.4262 55.5145 27.454 55.7355 26.6015C55.7862 26.3955 55.7528 26.2604 55.8551 26.1252V26.1585C56.093 26.6357 56.3332 27.0956 56.5538 27.5741C57.083 28.4093 58.0045 29.2797 58.7721 29.8582C59.1808 30.1669 59.5046 30.6948 60.0165 30.8834V30.8322H59.9827C59.879 30.6793 59.7274 30.6108 59.5913 30.492C59.2836 30.1847 58.9429 29.8094 58.7041 29.4687C57.989 28.513 57.3561 27.4549 56.7944 26.3631C56.5195 25.8334 56.2825 25.2544 56.0611 24.7256C55.9579 24.5215 55.9579 24.2137 55.7866 24.111C55.53 24.4859 55.156 24.8105 54.9688 25.2699C54.6441 26.0046 54.6103 26.9083 54.4898 27.8481L54.4226 27.881C53.8792 27.7444 53.6902 27.1823 53.4838 26.7051C52.9728 25.4932 52.887 23.5479 53.3304 22.1497C53.4491 21.7922 53.9628 20.6661 53.7578 20.3254C53.655 19.9989 53.3135 19.8131 53.1262 19.556C52.9061 19.2327 52.665 18.8236 52.5116 18.4646C52.1025 17.5098 51.8965 16.4518 51.4559 15.4974C51.2499 15.0526 50.8924 14.5923 50.6029 14.1827C50.2777 13.7224 49.9202 13.3982 49.6631 12.8526C49.5782 12.6649 49.459 12.358 49.5955 12.1539C49.6289 12.0169 49.6983 11.9658 49.8343 11.9315C50.0554 11.7447 50.6869 11.9822 50.9084 12.0849C51.5408 12.3407 52.0696 12.5795 52.5975 12.9375C52.8363 13.1087 53.0925 13.4329 53.3989 13.5183H53.7578C54.3025 13.6371 54.9167 13.5512 55.4295 13.7056C56.3332 13.996 57.152 14.422 57.8862 14.8819C60.1206 16.2988 61.9631 18.3121 63.207 20.7168C63.4111 21.1086 63.4979 21.4675 63.6842 21.8762C64.0436 22.7127 64.4879 23.5657 64.8445 24.3845C65.203 25.1859 65.5445 26.0042 66.0564 26.67C66.3117 27.028 67.3373 27.2157 67.7971 27.4033C68.1373 27.5563 68.667 27.6924 68.9739 27.8801C69.5543 28.2376 70.1324 28.6481 70.6781 29.0413C70.9498 29.2459 71.8037 29.6724 71.8543 30.0139ZM54.4537 15.1896C54.2182 15.1872 53.9834 15.216 53.7555 15.2755V15.3097H53.7884C53.9258 15.5823 54.1646 15.7714 54.335 16.0093C54.4724 16.2828 54.5916 16.5541 54.7263 16.8271L54.7592 16.7933C54.9998 16.623 55.1195 16.3499 55.1195 15.9403C55.0158 15.8198 54.9998 15.702 54.9135 15.5823C54.8131 15.4116 54.5916 15.3266 54.4537 15.1896Z" fill="#5D87A1"/>
<path d="M73.4791 48.8594H73.8326V47.1296H73.3024L72.87 48.31L72.4001 47.1296H71.8896V48.8594H72.2234V47.5433H72.2421L72.7344 48.8594H72.9887L73.4791 47.5433V48.8594ZM70.632 48.8594H71.006V47.4228H71.4955V47.1292H70.1219V47.4228H70.6311L70.632 48.8594Z" fill="#F8981D"/>
</svg>
