<svg width="61" height="61" viewBox="0 0 61 61" fill="none" xmlns="http://www.w3.org/2000/svg">
<path d="M14.5407 26.0737C15.1237 26.0004 15.7154 26.0434 16.2817 26.2001C16.848 26.3568 17.3776 26.6242 17.8399 26.9869C18.1382 27.4463 18.3284 27.9675 18.3962 28.5111C18.464 29.0547 18.4076 29.6066 18.2312 30.1253C18.0766 31.4022 17.4591 32.578 16.4957 33.4301C15.3338 34.1785 13.9605 34.5295 12.5821 34.4303H9.93518L11.5611 26.0907L14.5407 26.0737ZM3.95325 42.8738H8.30168L9.33207 37.58H13.0509C14.421 37.6149 15.7882 37.4383 17.1044 37.0563C18.1854 36.6995 19.1735 36.1066 19.9971 35.3207C21.4215 34.0399 22.3815 32.3233 22.7272 30.4391C23 29.5014 23.048 28.5125 22.8674 27.5527C22.6867 26.5929 22.2824 25.6891 21.6873 24.9147C20.9698 24.2037 20.1058 23.6579 19.1555 23.3153C18.2053 22.9728 17.1917 22.8418 16.1856 22.9315H7.84226L3.95325 42.8738Z" fill="#8993BE"/>
<path d="M25.9167 17.6262H30.233L29.1874 22.92H33.0273C34.7915 22.7353 36.5638 23.1835 38.028 24.1848C38.5125 24.7355 38.8436 25.4039 38.9883 26.123C39.133 26.8421 39.0861 27.5865 38.8523 28.2818L37.0487 37.5629H32.6813L34.398 28.7393C34.5174 28.4027 34.5601 28.0436 34.5228 27.6883C34.4855 27.333 34.3692 26.9906 34.1825 26.6861C33.5567 26.2371 32.7831 26.0437 32.0196 26.1454H28.573L26.3515 37.5723H22.0258L25.9167 17.6262Z" fill="#8993BE"/>
<path d="M48.4566 26.0737C49.0396 26.0004 49.6313 26.0434 50.1976 26.2001C50.7639 26.3568 51.2935 26.6243 51.7558 26.9869C52.0541 27.4464 52.2443 27.9675 52.3121 28.5111C52.3799 29.0547 52.3235 29.6066 52.1471 30.1253C51.9925 31.4022 51.375 32.578 50.4115 33.4301C49.2476 34.1801 47.8713 34.5312 46.4904 34.4303H43.8454L45.4676 26.0813L48.4566 26.0737ZM37.8691 42.8738H42.2176L43.248 37.58H46.9687C48.3413 37.6157 49.7112 37.4391 51.0298 37.0563C52.1108 36.6995 53.0988 36.1066 53.9224 35.3207C55.3433 34.0385 56.2999 32.3221 56.643 30.4392C56.9159 29.5014 56.9639 28.5125 56.7833 27.5527C56.6026 26.5929 56.1983 25.6892 55.6032 24.9148C54.8854 24.205 54.0215 23.6604 53.0716 23.3188C52.1217 22.9773 51.1088 22.847 50.1034 22.9372H41.7468L37.8691 42.8738Z" fill="#8993BE"/>
</svg>
