<svg width="61" height="61" viewBox="0 0 61 61" fill="none" xmlns="http://www.w3.org/2000/svg">
<rect x="0.672729" y="0.25" width="60" height="60" fill="white"/>
<path d="M38.6785 26.0037C38.6785 33.1065 35.6929 37.0869 30.3463 37.0869C27.1663 37.0869 24.8239 35.5647 23.8291 33.0477H23.6731V45.2349H15.6727V15.2319H23.6929V19.1151H23.8297C24.8641 16.4811 27.1477 14.9199 30.2497 14.9199C35.6737 14.9199 38.6785 18.8811 38.6785 26.0037ZM30.4825 26.0037C30.4825 23.0181 29.1565 21.0861 27.0685 21.0861C24.9805 21.0861 23.6545 23.0181 23.6341 26.0229C23.6539 29.0469 24.9601 30.9207 27.0685 30.9207C29.1757 30.9207 30.4825 29.0085 30.4825 26.0037ZM41.6227 33.0999C41.6227 30.8607 43.4335 29.0499 45.6727 29.0499C47.9119 29.0499 49.7227 30.8607 49.7227 33.0999C49.7227 35.3391 47.9119 37.1499 45.6727 37.1499C43.4335 37.1499 41.6227 35.3391 41.6227 33.0999Z" fill="black"/>
</svg>
