<svg width="61" height="61" viewBox="0 0 61 61" fill="none" xmlns="http://www.w3.org/2000/svg">
<g clip-path="url(#clip0_10_8)">
<path d="M59.1711 36.1785C58.8222 35.1221 57.9084 34.3862 56.7265 34.2095C56.1692 34.1263 55.531 34.1618 54.7758 34.3175C53.4596 34.5891 52.483 34.6924 51.7703 34.7125C54.4603 30.1705 56.6479 24.9908 57.9072 20.1151C59.9434 12.2314 58.8553 8.63982 57.5838 7.01517C54.2186 2.71535 49.3089 0.405281 43.3855 0.334469C40.2259 0.295905 37.4519 0.91978 36.005 1.3683C34.6577 1.13074 33.2089 0.997983 31.6888 0.973394C28.8398 0.927977 26.3222 1.54903 24.1711 2.82554C22.9799 2.42297 21.0688 1.85526 18.8615 1.49286C13.67 0.640561 9.48606 1.30475 6.42567 3.46675C2.71977 6.08453 1.00173 10.6327 1.31951 16.9849C1.42029 19.0018 2.54859 25.1381 4.32495 30.9577C5.34588 34.3026 6.43454 37.0804 7.56069 39.2144C9.15767 42.2406 10.8664 44.0227 12.7848 44.6626C13.8602 45.0209 15.8138 45.2717 17.8687 43.5606C18.1291 43.8758 18.4764 44.1893 18.9377 44.4804C19.5233 44.8497 20.2395 45.1515 20.9546 45.3304C23.5322 45.9748 25.9465 45.8136 28.0063 44.9105C28.0189 45.2768 28.0287 45.6268 28.0371 45.929C28.0508 46.4193 28.0642 46.8999 28.0822 47.3494C28.2042 50.3891 28.411 52.7525 29.0237 54.4061C29.0573 54.4972 29.1026 54.6357 29.1504 54.7826C29.456 55.7186 29.9673 57.2853 31.2676 58.5125C32.6143 59.7835 34.2432 60.1735 35.7349 60.1733C36.4831 60.1733 37.197 60.0752 37.823 59.941C40.055 59.4628 42.5898 58.734 44.4234 56.1232C46.1569 53.6549 46.9996 49.9375 47.1521 44.0798C47.1719 43.9143 47.1902 43.7561 47.2078 43.6054C47.2196 43.5036 47.2317 43.3996 47.2439 43.2959L47.6524 43.3318L47.7576 43.3389C50.0309 43.4425 52.8104 42.9604 54.5174 42.1675C55.8664 41.5414 60.1888 39.2596 59.1711 36.1785Z" fill="black"/>
<path d="M55.2842 36.7777C48.5251 38.1719 48.0605 35.8835 48.0605 35.8835C55.197 25.2941 58.1802 11.8525 55.6057 8.56276C48.5823 -0.411081 36.4243 3.83297 36.2214 3.94315L36.1561 3.95484C34.8207 3.67764 33.3263 3.5125 31.6466 3.48509C28.5883 3.43497 26.2684 4.28687 24.508 5.62182C24.508 5.62182 2.81936 -3.31305 3.82807 16.8591C4.04266 21.1506 9.97895 49.3303 17.0595 40.8187C19.6475 37.7063 22.148 35.0747 22.148 35.0747C23.3899 35.8998 24.8767 36.3206 26.4354 36.1694L26.5565 36.0666C26.5188 36.4531 26.536 36.8311 26.605 37.2785C24.7809 39.3165 25.3169 39.6743 21.6705 40.4249C17.9809 41.1853 20.1484 42.5391 21.5636 42.8929C23.2792 43.3219 27.2483 43.9296 29.9302 40.1754L29.8232 40.6037C30.538 41.1762 31.0398 44.3272 30.9557 47.1837C30.8716 50.0402 30.8154 52.0013 31.3786 53.5331C31.9417 55.065 32.503 58.5115 37.2965 57.4844C41.3019 56.626 43.3775 54.4017 43.6662 50.6914C43.8711 48.0536 44.3348 48.4435 44.3641 46.0852L44.7361 44.9687C45.165 41.393 44.8042 40.2395 47.2719 40.776L47.8716 40.8287C49.6878 40.9113 52.065 40.5366 53.4601 39.8881C56.4643 38.4939 58.2461 36.1661 55.2839 36.7777H55.2842Z" fill="#336791"/>
<path d="M25.7775 18.7785C25.1685 18.6937 24.6168 18.7721 24.3377 18.9834C24.1806 19.1023 24.1321 19.24 24.1191 19.3349C24.084 19.586 24.2601 19.8636 24.3681 20.0069C24.6739 20.4122 25.1208 20.6909 25.5632 20.7523C25.6273 20.7612 25.691 20.7655 25.7544 20.7655C26.4921 20.7655 27.1626 20.1912 27.2217 19.7673C27.2956 19.2364 26.5249 18.8825 25.7775 18.7785Z" fill="white"/>
<path d="M45.9557 18.7952C45.8977 18.3791 45.1569 18.2604 44.4542 18.3581C43.7525 18.456 43.0719 18.7727 43.1288 19.1897C43.1744 19.5141 43.7599 20.0678 44.4532 20.0677C44.5117 20.0677 44.5708 20.0638 44.6303 20.0555C45.0931 19.9914 45.4326 19.6975 45.5939 19.5281C45.8396 19.2701 45.9817 18.9823 45.9557 18.7952Z" fill="white"/>
<path d="M57.5333 36.6195C57.2756 35.8401 56.4462 35.5893 55.0679 35.874C50.9759 36.7185 49.5104 36.1335 49.0291 35.7791C52.2099 30.9335 54.8265 25.0765 56.238 19.6116C56.9068 17.023 57.2762 14.619 57.3063 12.6596C57.3396 10.5086 56.9734 8.9283 56.2179 7.96285C53.1719 4.07072 48.7015 1.98303 43.2901 1.92565C39.5699 1.88386 36.4268 2.836 35.8174 3.10366C34.5342 2.78454 33.1353 2.58863 31.6125 2.56363C28.8196 2.51849 26.4057 3.18711 24.4069 4.54988C23.5388 4.22686 21.2951 3.45665 18.5514 3.01471C13.8076 2.25082 10.0382 2.82955 7.34809 4.73531C4.13829 7.00937 2.65646 11.0743 2.94361 16.817C3.04022 18.7492 4.14097 24.6927 5.87837 30.3849C8.16519 37.8766 10.6509 42.1179 13.2665 42.9902C13.5726 43.0923 13.9257 43.1638 14.3149 43.1638C15.269 43.1638 16.4387 42.7337 17.6558 41.2705C19.6774 38.8385 21.5649 36.8005 22.2606 36.06C23.2888 36.612 24.4182 36.9201 25.5737 36.951C25.5757 36.9812 25.5788 37.0114 25.5814 37.0415C25.3497 37.3165 25.1595 37.5574 24.9975 37.7631C24.197 38.7792 24.0304 38.9907 21.4538 39.5213C20.7209 39.6725 18.774 40.0737 18.7457 41.4382C18.7146 42.9291 21.0466 43.5552 21.3124 43.6216C22.2383 43.8534 23.1303 43.9677 23.981 43.9677C26.05 43.9676 27.8706 43.2877 29.3256 41.9721C29.2808 47.287 29.5025 52.5243 30.1406 54.1201C30.6631 55.4263 31.9401 58.6189 35.9734 58.6187C36.565 58.6187 37.2166 58.5499 37.9332 58.3963C42.1424 57.4937 43.9703 55.6334 44.6774 51.5319C45.0558 49.3399 45.7052 44.1054 46.0105 41.2978C46.6551 41.4988 47.485 41.5909 48.382 41.5907C50.253 41.5907 52.4117 41.1933 53.7656 40.5648C55.2864 39.8586 58.031 38.1252 57.5333 36.6195ZM47.5093 17.6466C47.4953 18.4755 47.3812 19.228 47.2603 20.0135C47.1302 20.8583 46.9956 21.7317 46.9617 22.792C46.9283 23.8238 47.0571 24.8966 47.1818 25.9339C47.4336 28.0293 47.692 30.1866 46.6916 32.3152C46.5362 32.0391 46.3861 31.7379 46.2485 31.4042C46.1242 31.1028 45.8542 30.6187 45.4806 29.9486C44.0262 27.3405 40.6204 21.2329 42.3639 18.7406C42.8831 17.9986 44.201 17.2361 47.5093 17.6466ZM43.4993 3.60419C48.3479 3.71128 52.1832 5.52513 54.8988 8.99508C56.9815 11.6567 54.6881 23.7673 48.0488 34.2152C47.9832 34.1319 47.9164 34.0478 47.8473 33.9615C47.8198 33.927 47.7917 33.8919 47.7634 33.8565C49.479 31.023 49.1435 28.2197 48.8449 25.7341C48.7222 24.7141 48.6064 23.7507 48.6358 22.8458C48.6663 21.8864 48.7932 21.064 48.9157 20.2685C49.0666 19.2882 49.2199 18.2739 49.1776 17.0782C49.2092 16.9528 49.2219 16.8046 49.2054 16.6287C49.0974 15.482 47.7884 12.0506 45.1201 8.94442C43.6607 7.24573 41.5321 5.34454 38.626 4.06225C39.876 3.80319 41.5855 3.56159 43.4993 3.60419ZM16.3679 40.1996C15.027 41.8118 14.1009 41.5029 13.7965 41.4014C11.8122 40.7395 9.51009 36.546 7.48031 29.8959C5.72398 24.1418 4.69753 18.3558 4.61637 16.7333C4.35986 11.602 5.60372 8.02574 8.31354 6.10399C12.7235 2.97655 19.9741 4.84845 22.8875 5.7979C22.8456 5.83915 22.802 5.87785 22.7605 5.91977C17.9798 10.7481 18.0932 18.9972 18.1049 19.5014C18.1045 19.696 18.1207 19.9714 18.1432 20.3503C18.2254 21.7377 18.3785 24.32 17.9696 27.2444C17.5894 29.9619 18.4271 32.6217 20.2674 34.5419C20.4579 34.7406 20.6568 34.9272 20.8623 35.1029C20.043 35.9802 18.2628 37.92 16.3679 40.1996ZM21.4767 33.3829C19.9934 31.8354 19.3198 29.6827 19.6284 27.4763C20.0602 24.3871 19.9007 21.6966 19.8151 20.2512C19.8032 20.049 19.7926 19.8717 19.7862 19.7318C20.4847 19.1127 23.7212 17.3784 26.0293 17.9072C27.0828 18.1486 27.7244 18.8657 27.9912 20.0995C29.3723 26.4864 28.1741 29.1486 27.2113 31.2877C27.0129 31.7284 26.8254 32.145 26.6653 32.576L26.5412 32.9091C26.2271 33.7515 25.9348 34.5346 25.7537 35.2783C24.177 35.2735 22.6431 34.6 21.4767 33.3829ZM21.7187 41.9967C21.2584 41.8816 20.8443 41.6818 20.6013 41.5162C20.8042 41.4206 21.1654 41.2908 21.7917 41.1618C24.8229 40.5377 25.2909 40.0974 26.3132 38.7994C26.5477 38.5019 26.8133 38.1645 27.1812 37.7536L27.1816 37.753C27.7297 37.1395 27.9803 37.2435 28.4349 37.432C28.8033 37.5845 29.1621 38.0462 29.3076 38.5544C29.3764 38.7944 29.4538 39.25 29.2008 39.6044C27.0653 42.5943 23.9536 42.5559 21.7187 41.9967ZM37.5821 56.7586C33.8739 57.5531 32.561 55.6611 31.6958 53.4981C31.1373 52.1016 30.863 45.8047 31.0577 38.851C31.0602 38.7584 31.047 38.669 31.0215 38.585C30.9993 38.4228 30.9652 38.2588 30.9179 38.0936C30.6282 37.0818 29.9226 36.2355 29.0761 35.8846C28.7398 35.7453 28.1224 35.4896 27.3805 35.6793C27.5388 35.0275 27.8132 34.2915 28.1105 33.4945L28.2354 33.1591C28.3759 32.7811 28.5521 32.3895 28.7386 31.9751C29.7461 29.7368 31.1259 26.6712 29.6284 19.7454C29.0674 17.1514 27.1943 15.8847 24.3547 16.1789C22.6522 16.355 21.0949 17.0419 20.3181 17.4357C20.1511 17.5204 19.9983 17.6021 19.8556 17.6818C20.0723 15.068 20.8916 10.1836 23.9557 7.09322C25.8848 5.14755 28.4543 4.18668 31.5848 4.23841C37.753 4.33946 41.7084 7.50492 43.9407 10.1427C45.8642 12.4158 46.9058 14.7055 47.3216 15.9403C44.1955 15.6226 42.0693 16.2397 40.9914 17.7805C38.6467 21.1322 42.2743 27.6378 44.0177 30.7643C44.3374 31.3374 44.6133 31.8326 44.7002 32.043C45.2679 33.4189 46.0029 34.3375 46.5395 35.0081C46.704 35.2136 46.8636 35.4128 46.985 35.5869C46.0382 35.8599 44.3375 36.4905 44.4924 39.6429C44.3675 41.2248 43.4785 48.6307 43.027 51.2473C42.4309 54.7041 41.1589 55.9917 37.5821 56.7586ZM53.0603 39.0457C52.0922 39.4951 50.472 39.8322 48.9328 39.9045C47.2327 39.9842 46.3674 39.7141 46.1638 39.5481C46.0682 37.5836 46.7995 37.3783 47.5734 37.161C47.695 37.1267 47.8136 37.0935 47.9281 37.0535C47.9993 37.1114 48.0772 37.1689 48.1626 37.2252C49.529 38.1271 51.9662 38.2244 55.4067 37.5142C55.4193 37.5116 55.4319 37.5091 55.4444 37.5066C54.9805 37.9405 54.1863 38.5228 53.0603 39.0457Z" fill="white"/>
</g>
<defs>
<clipPath id="clip0_10_8">
<rect width="60" height="60" fill="white" transform="translate(0.305603 0.25)"/>
</clipPath>
</defs>
</svg>
