<svg width="69" height="61" viewBox="0 0 69 61" fill="none" xmlns="http://www.w3.org/2000/svg">
<path d="M56.1671 19.6879C55.4669 19.4469 54.7414 19.2189 53.9943 19.0032C54.1171 18.5021 54.2298 18.0075 54.33 17.5213C55.9748 9.53748 54.8994 3.1057 51.2272 0.988081C47.7061 -1.04243 41.9476 1.0747 36.1318 6.13603C35.5725 6.62272 35.0117 7.13801 34.4511 7.67805C34.0776 7.32075 33.7047 6.97546 33.3327 6.64519C27.2376 1.23329 21.1282 -1.04736 17.4596 1.07638C13.9419 3.11279 12.9001 9.15928 14.3806 16.7256C14.5236 17.4564 14.6907 18.2027 14.8797 18.9615C14.015 19.207 13.1803 19.4686 12.3816 19.747C5.2357 22.2384 0.671997 26.143 0.671997 30.1931C0.671997 34.376 5.57113 38.5716 13.0141 41.1156C13.6015 41.3164 14.211 41.5062 14.8391 41.6864C14.6352 42.5071 14.4579 43.3113 14.309 44.0957C12.8974 51.5307 13.9998 57.4344 17.5082 59.4579C21.132 61.5476 27.2138 59.3996 33.136 54.223C33.604 53.8138 34.0738 53.3798 34.5444 52.925C35.1543 53.5123 35.7633 54.0682 36.3691 54.5896C42.1054 59.5259 47.7709 61.5192 51.276 59.49C54.8962 57.3942 56.0728 51.0523 54.5453 43.3363C54.4287 42.747 54.2929 42.145 54.1404 41.5323C54.5675 41.406 54.9868 41.2757 55.3957 41.1401C63.1334 38.5764 68.1678 34.4319 68.1678 30.1931C68.1678 26.1283 63.4569 22.1974 56.1671 19.6879ZM54.4888 38.4032C54.1198 38.5254 53.7411 38.6435 53.3552 38.758C52.501 36.0537 51.3481 33.1781 49.9373 30.2071C51.2836 27.3069 52.3919 24.4681 53.2222 21.7814C53.9127 21.9812 54.5828 22.1919 55.2286 22.4143C61.4745 24.5644 65.2844 27.7435 65.2844 30.1931C65.2844 32.8023 61.1698 36.1895 54.4888 38.4032ZM51.7167 43.8963C52.3921 47.3082 52.4886 50.393 52.0412 52.8045C51.6392 54.9713 50.8308 56.416 49.8312 56.9946C47.7041 58.2258 43.1553 56.6254 38.2495 52.4039C37.6872 51.92 37.1207 51.4032 36.5524 50.8564C38.4543 48.7763 40.355 46.3583 42.2101 43.6727C45.4731 43.3832 48.5558 42.9098 51.3514 42.2636C51.489 42.819 51.6113 43.3637 51.7167 43.8963ZM23.6828 56.7819C21.6046 57.5158 19.9494 57.5368 18.9489 56.9599C16.8199 55.7319 15.9348 50.9919 17.1421 44.6335C17.2804 43.9053 17.445 43.1573 17.6347 42.3927C20.3996 43.0041 23.4597 43.4441 26.7305 43.7093C28.5981 46.3371 30.5537 48.7526 32.5246 50.8675C32.094 51.2832 31.6651 51.679 31.2386 52.0519C28.6198 54.3409 25.9956 55.965 23.6828 56.7819ZM13.9467 38.3872C10.6555 37.2623 7.93756 35.8003 6.07453 34.205C4.40047 32.7713 3.55528 31.348 3.55528 30.1931C3.55528 27.7353 7.21948 24.6005 13.3307 22.4698C14.0722 22.2112 14.8485 21.9676 15.654 21.7387C16.4986 24.4861 17.6066 27.3586 18.9436 30.2632C17.5893 33.211 16.4656 36.1293 15.6127 38.9089C15.0384 38.7438 14.482 38.5701 13.9467 38.3872ZM17.2103 16.1718C15.9419 9.68922 16.7843 4.79897 18.9042 3.57185C21.1623 2.26459 26.1555 4.12846 31.4182 8.80137C31.7546 9.10005 32.0923 9.41265 32.431 9.73607C30.4699 11.8418 28.5321 14.2391 26.6811 16.8515C23.5067 17.1457 20.4681 17.6183 17.6743 18.2512C17.4987 17.5447 17.3431 16.8505 17.2103 16.1718ZM46.325 23.361C45.6571 22.2074 44.9715 21.0811 44.2725 19.9855C46.426 20.2577 48.4893 20.6191 50.427 21.0613C49.8453 22.9257 49.1202 24.875 48.2667 26.8733C47.6545 25.711 47.0069 24.539 46.325 23.361ZM34.4521 11.7967C35.7821 13.2376 37.114 14.8463 38.424 16.5917C37.1039 16.5294 35.7674 16.4969 34.4199 16.4969C33.0851 16.4969 31.7585 16.5286 30.4466 16.5899C31.7579 14.8607 33.1014 13.2542 34.4521 11.7967ZM22.5032 23.3809C21.836 24.5378 21.2005 25.7034 20.5979 26.8712C19.7582 24.8798 19.0399 22.9216 18.4531 21.0308C20.3788 20.5999 22.4324 20.2475 24.5723 19.9804C23.8634 21.0861 23.1721 22.221 22.5032 23.3809ZM24.6339 40.6114C22.423 40.3647 20.3386 40.0305 18.4133 39.6115C19.0095 37.6869 19.7436 35.6869 20.6011 33.6527C21.2053 34.8196 21.8434 35.9857 22.5146 37.1451C23.1983 38.3262 23.9068 39.4831 24.6339 40.6114ZM34.5319 48.7927C33.1653 47.3182 31.8021 45.6871 30.4708 43.9327C31.7632 43.9834 33.0808 44.0094 34.4199 44.0094C35.7956 44.0094 37.1557 43.9784 38.4943 43.9188C37.1799 45.7048 35.8528 47.3384 34.5319 48.7927ZM48.2942 33.549C49.1964 35.6052 49.9569 37.5948 50.5607 39.4865C48.6037 39.933 46.4908 40.2925 44.2646 40.5597C44.9652 39.4494 45.6569 38.3037 46.3365 37.1252C47.0241 35.933 47.6769 34.7389 48.2942 33.549ZM43.8389 35.6847C42.7838 37.5141 41.7006 39.2605 40.601 40.909C38.5981 41.0522 36.5289 41.126 34.4199 41.126C32.3195 41.126 30.2763 41.0607 28.3089 40.933C27.1649 39.2629 26.0582 37.5114 25.0098 35.7005C23.9642 33.8945 23.0021 32.0733 22.1301 30.2623C23.0019 28.4471 23.9617 26.6238 25.0013 24.8211L25.001 24.8214C26.0434 23.0139 27.1404 21.2709 28.2738 19.6112C30.2811 19.4595 32.3395 19.3803 34.4198 19.3803C36.5094 19.3803 38.5706 19.4601 40.5773 19.6132C41.6934 21.2607 42.783 22.998 43.8294 24.8058C44.8877 26.6339 45.8599 28.445 46.7391 30.2213C45.8626 32.0281 44.8925 33.8575 43.8389 35.6847ZM49.787 3.48607C52.0472 4.78948 52.9262 10.0462 51.5061 16.9393C51.4155 17.3791 51.3135 17.8271 51.2027 18.2811C48.4025 17.635 45.3617 17.1542 42.1781 16.8555C40.3234 14.2145 38.4015 11.8134 36.4724 9.73475C36.9911 9.2358 37.509 8.76004 38.0248 8.31107C43.0078 3.97456 47.665 2.26242 49.787 3.48607ZM34.4199 24.1659C37.7486 24.1659 40.4471 26.8643 40.4471 30.1931C40.4471 33.5217 37.7486 36.2202 34.4199 36.2202C31.0913 36.2202 28.3928 33.5217 28.3928 30.1931C28.3928 26.8643 31.0913 24.1659 34.4199 24.1659Z" fill="#00D8FF"/>
</svg>
