<svg width="68" height="61" viewBox="0 0 68 61" fill="none" xmlns="http://www.w3.org/2000/svg">
<path d="M16.9352 20.1667C19.1902 6.72222 24.8277 0 33.8477 0C47.3777 0 49.069 15.125 55.834 17.6458C60.344 19.3264 64.2902 16.8056 67.6727 10.0833C65.4177 23.5278 59.7802 30.25 50.7602 30.25C37.2302 30.25 35.539 15.125 28.774 12.6042C24.264 10.9236 20.3177 13.4444 16.9352 20.1667ZM0.0227051 50.4167C2.27771 36.9722 7.91521 30.25 16.9352 30.25C30.4652 30.25 32.1565 45.375 38.9215 47.8958C43.4315 49.5764 47.3777 47.0556 50.7602 40.3333C48.5052 53.7778 42.8677 60.5 33.8477 60.5C20.3177 60.5 18.6265 45.375 11.8615 42.8542C7.35146 41.1736 3.40521 43.6944 0.0227051 50.4167Z" fill="#44A8B3"/>
</svg>
