<svg width="61" height="61" viewBox="0 0 61 61" fill="none" xmlns="http://www.w3.org/2000/svg">
<path d="M51.672 0.25H9.672C4.70143 0.25 0.671997 4.27944 0.671997 9.25V51.25C0.671997 56.2206 4.70143 60.25 9.672 60.25H51.672C56.6426 60.25 60.672 56.2206 60.672 51.25V9.25C60.672 4.27944 56.6426 0.25 51.672 0.25Z" fill="#3178C6"/>
<path d="M27.9767 33.5314H35.4767V28.7268H14.5001V33.5314H22.0001V54.9768H27.9767V33.5314ZM37.8204 53.8049C38.7697 54.2971 39.9298 54.6604 41.2189 54.9064C42.5079 55.1525 43.9142 55.2697 45.3204 55.2697C46.7267 55.2697 48.0157 55.1408 49.3048 54.8713C50.5939 54.6018 51.6486 54.1564 52.5861 53.5822C53.5353 52.9611 54.3439 52.176 54.8126 51.1213C55.2814 50.0666 55.6447 48.8947 55.6447 47.3713C55.6447 46.3049 55.4806 45.3791 55.1642 44.5588C54.8478 43.7385 54.3907 43.0354 53.7579 42.4494C53.1603 41.8283 52.4689 41.2775 51.6486 40.8088C50.8282 40.34 49.8907 39.8479 48.8361 39.4025C48.0626 39.0861 47.4298 38.7814 46.7267 38.4768C46.1173 38.1721 45.59 37.8674 45.2032 37.5627C44.7697 37.2463 44.4415 36.9182 44.2072 36.5783C43.9728 36.2268 43.8556 35.84 43.8556 35.4064C43.8556 35.008 43.9599 34.6447 44.172 34.3166C44.3841 33.9885 44.6759 33.7189 45.0509 33.4846C45.4259 33.2502 45.8947 33.0744 46.4572 32.9455C47.0079 32.8166 47.6173 32.758 48.3322 32.758C48.8243 32.758 49.34 32.7943 49.8556 32.8682C50.3947 32.942 50.9454 33.0557 51.4962 33.208C52.047 33.3604 52.5861 33.5479 53.1368 33.7822C53.6525 34.0166 54.1329 34.2861 54.5431 34.5908V29.083C53.6525 28.7432 52.6681 28.4854 51.6134 28.3213C50.5587 28.1572 49.3868 28.0752 47.9806 28.0752C46.5743 28.0752 45.2853 28.2275 43.9962 28.5205C42.7072 28.8135 41.6525 29.2822 40.715 29.9268C39.7657 30.5596 39.0743 31.333 38.4884 32.3877C37.9376 33.3721 37.6681 34.4971 37.6681 35.9033C37.6681 37.6611 38.172 39.1846 39.1915 40.3564C40.1993 41.6455 41.7697 42.583 43.7618 43.5205C44.5704 43.8486 45.2853 44.1768 45.9884 44.4932C46.6915 44.8096 47.2775 45.1377 47.7462 45.4775C48.2501 45.8174 48.6486 46.1924 48.9181 46.5908C49.2111 46.9893 49.3634 47.458 49.3634 47.9971C49.3634 48.3721 49.272 48.7236 49.0939 49.0518C48.9157 49.3799 48.6368 49.6611 48.2618 49.8955C47.8868 50.1299 47.4298 50.3174 46.8556 50.458C46.3048 50.5869 45.6837 50.6572 44.8634 50.6572C43.5743 50.6572 42.2853 50.4346 41.1134 49.9893C39.8243 49.5439 38.6525 48.876 37.8204 48.1799V53.8049Z" fill="white"/>
</svg>
