<svg width="37" height="37" viewBox="0 0 37 37" fill="none" xmlns="http://www.w3.org/2000/svg">
<path d="M28.0016 14.7674H25.1843C24.5409 14.7674 24.0193 14.2457 24.0193 13.6023C24.0193 12.9589 24.541 12.4372 25.1843 12.4372H28.0016C28.3926 12.4372 28.7106 12.1192 28.7106 11.7282C28.7106 11.3373 28.3926 11.0192 28.0016 11.0192H26.3131C25.1017 11.0192 24.0076 10.3013 23.525 9.19004C23.5246 9.1891 23.5241 9.18823 23.5238 9.18729C23.3579 8.8045 23.2738 8.3983 23.2738 7.98003V7.45516C23.2738 6.83895 23.7536 6.32933 24.3687 6.29219C24.983 6.25505 25.5214 6.70324 25.5955 7.31489L25.7241 8.37488C25.8544 8.56899 26.0739 8.68902 26.313 8.68902H28.0015C29.6774 8.68902 31.0408 10.0525 31.0408 11.7282C31.0408 13.404 29.6774 14.7674 28.0016 14.7674Z" fill="#B6BBDB"/>
<path d="M28.0016 14.767C28.3495 14.767 28.6835 14.7074 28.9951 14.5994L28.064 12.4336C28.0434 12.4354 28.0227 12.4368 28.0016 12.4368H25.1844C24.5409 12.4368 24.0193 12.9585 24.0193 13.6018C24.0193 14.2452 24.541 14.7669 25.1844 14.7669H28.0016V14.767Z" fill="#9FA3BF"/>
<path d="M30.5973 23.2432L26.2547 13.1419C26.2526 13.1371 26.2499 13.1328 26.2478 13.128C26.2409 13.1126 26.2344 13.0971 26.2269 13.082C26.2216 13.0715 26.2157 13.0614 26.2101 13.0511C26.2052 13.042 26.2005 13.033 26.1954 13.0241C26.1789 12.9952 26.1616 12.9669 26.1429 12.9398C26.1379 12.9326 26.1324 12.9259 26.1273 12.9188C26.1127 12.8986 26.0975 12.879 26.0817 12.8599C26.0733 12.8496 26.0647 12.8395 26.0559 12.8297C26.0406 12.8124 26.0248 12.7958 26.0085 12.7796C26.001 12.7721 25.9938 12.7641 25.986 12.7568C25.9638 12.7357 25.9406 12.7159 25.9169 12.6967C25.9072 12.6888 25.8972 12.6814 25.8874 12.6739C25.8696 12.6604 25.8514 12.6474 25.8327 12.6351C25.8235 12.6289 25.8146 12.6226 25.8053 12.6168C25.7784 12.5999 25.7511 12.5839 25.7229 12.5692C25.7156 12.5654 25.7082 12.5622 25.7008 12.5585C25.6779 12.5472 25.6546 12.5366 25.6309 12.5267C25.6214 12.5227 25.6117 12.5187 25.6021 12.515C25.576 12.5049 25.5494 12.4957 25.5224 12.4876C25.5173 12.4861 25.5123 12.4842 25.5071 12.4827C25.4765 12.4738 25.4454 12.4666 25.4139 12.4603C25.4023 12.4579 25.3904 12.456 25.3787 12.454C25.3577 12.4505 25.3365 12.4475 25.3152 12.4451C25.3021 12.4436 25.289 12.442 25.2758 12.4409C25.2474 12.4386 25.2189 12.4374 25.1903 12.4372C25.1837 12.4372 25.177 12.4369 25.1704 12.437H14.8942L13.8622 9.47092C13.6507 8.86331 12.9868 8.54209 12.3789 8.75346C11.7711 8.96499 11.45 9.62904 11.6614 10.2368L12.4271 12.437H10.5665C10.0604 12.437 9.61226 12.7637 9.45725 13.2454L6.20848 23.3466C6.09444 23.701 6.15674 24.0887 6.37606 24.3896C6.59539 24.6906 6.9453 24.8685 7.31761 24.8685H17.573C17.5756 24.8685 17.5782 24.8688 17.5807 24.8688C17.622 24.8688 17.6637 24.8657 17.7053 24.8612C17.7142 24.8602 17.7228 24.859 17.7317 24.8579C17.7653 24.8534 17.799 24.8475 17.8327 24.84C17.8406 24.8383 17.8485 24.8369 17.8564 24.835C17.8923 24.8263 17.9281 24.8162 17.9636 24.8038C17.9663 24.8029 17.9687 24.8016 17.9712 24.8007C17.9839 24.7962 17.9962 24.7904 18.0087 24.7854C18.0362 24.7746 18.0634 24.7635 18.0896 24.7508C18.102 24.7447 18.114 24.7379 18.1262 24.7314C18.1521 24.7177 18.1776 24.7034 18.2021 24.6879C18.2134 24.6808 18.2242 24.6734 18.2353 24.6658C18.2602 24.6489 18.2843 24.6312 18.3076 24.6126C18.3174 24.6047 18.3272 24.5969 18.3367 24.5887C18.3611 24.5679 18.3843 24.5461 18.4067 24.5235C18.4141 24.516 18.4219 24.5089 18.4292 24.5011C18.4596 24.4686 18.4886 24.4349 18.515 24.3993L24.9071 15.9075L28.4564 24.1635C28.646 24.6047 29.0758 24.8687 29.5273 24.8687C29.6809 24.8687 29.8369 24.8381 29.987 24.7736C30.5783 24.5195 30.8514 23.8343 30.5973 23.2432ZM11.4155 14.7671H13.2378L15.9418 22.5381H8.9162L11.4155 14.7671ZM17.9635 21.2577L15.705 14.7673H22.8491L17.9635 21.2577Z" fill="#FF6465"/>
<path d="M16.3146 11.0191H10.3333C9.01058 11.0191 7.9344 9.94289 7.9344 8.62014C7.9344 7.97669 8.45609 7.45508 9.09947 7.45508C9.74285 7.45508 10.2645 7.97676 10.2645 8.62014C10.2645 8.65808 10.2954 8.68887 10.3333 8.68887H16.3145C16.958 8.68887 17.4796 9.21055 17.4796 9.85393C17.4796 10.4973 16.9581 11.0191 16.3146 11.0191Z" fill="#494A59"/>
<path d="M7.00695 30.7103C3.14327 30.7103 0 27.5668 0 23.7032C0 19.8396 3.14327 16.6963 7.00695 16.6963C10.8706 16.6963 14.0139 19.8396 14.0139 23.7032C14.0139 27.5669 10.8706 30.7103 7.00695 30.7103ZM7.00695 19.0265C4.42822 19.0265 2.33021 21.1244 2.33021 23.7032C2.33021 26.282 4.42815 28.3801 7.00695 28.3801C9.58575 28.3801 11.6837 26.282 11.6837 23.7032C11.6837 21.1244 9.58567 19.0265 7.00695 19.0265Z" fill="#494A59"/>
<path d="M29.9931 30.7103C26.1294 30.7103 22.986 27.5669 22.986 23.7032C22.986 19.8396 26.1294 16.6963 29.9931 16.6963C33.8567 16.6963 37 19.8396 37 23.7032C37 27.5668 33.8567 30.7103 29.9931 30.7103ZM29.9931 19.0265C27.4143 19.0265 25.3162 21.1244 25.3162 23.7032C25.3162 26.282 27.4143 28.3801 29.9931 28.3801C32.5719 28.3801 34.6698 26.282 34.6698 23.7032C34.6698 21.1244 32.5719 19.0265 29.9931 19.0265Z" fill="#494A59"/>
</svg>
