<svg width="61" height="60" viewBox="0 0 61 60" fill="none" xmlns="http://www.w3.org/2000/svg">
<path d="M54.3162 16.7153H51.6396V18.3951H54.3162C54.7686 18.3951 54.9392 18.8847 54.9392 19.3372V41.4978C54.9392 43.7605 53.2958 45.4521 51.0331 45.4521H34.6178C33.26 45.4521 31.9617 46.7062 31.9617 48.0639V48.3318H28.6621V48.0639C28.6621 46.7062 27.7679 45.4521 26.4102 45.4521H9.99486C7.73215 45.4521 5.68464 43.7605 5.68464 41.4978V19.3372C5.68464 18.8847 6.25937 18.3951 6.71184 18.3951H8.98427V16.7153H6.71184C5.35407 16.7153 4.06482 17.9794 4.06482 19.3372V41.4978C4.06482 44.6659 6.82685 47.0719 9.99486 47.0719H26.4102C26.8626 47.0719 27.0422 47.6115 27.0422 48.0639V48.4743C27.0422 49.3796 27.9671 49.9515 28.8725 49.9515H32.1555C33.0608 49.9515 33.5816 49.3796 33.5816 48.4743V48.0639C33.5816 47.6115 34.1654 47.0719 34.6178 47.0719H51.0331C54.2011 47.0719 56.5589 44.6658 56.5589 41.4978V19.3372C56.5589 17.9795 55.6739 16.7153 54.3162 16.7153Z" fill="#FF7415"/>
<path d="M16.3634 16.7153H26.2023V18.3951H16.3634V16.7153ZM16.3634 20.4349H26.2023V22.0547H16.3634V20.4349ZM16.3634 24.0945H26.2023V25.7743H16.3634V24.0945ZM34.4214 16.7153H44.2603V18.3951H34.4214V16.7153ZM34.4214 20.4349H44.2603V22.0547H34.4214V20.4349ZM34.4214 24.0945H44.2603V25.7743H34.4214V24.0945Z" fill="#FF7415"/>
<path d="M49.8019 13.4754H48.7599V13.1812C48.7599 11.371 47.5084 9.75586 45.6982 9.75586H35.8489C33.568 9.75586 31.5774 11.0056 30.514 12.8536C29.4505 11.0056 27.46 9.75586 25.179 9.75586H15.3299C13.5196 9.75586 11.864 11.3709 11.864 13.1812V13.4754H11.2261C9.64226 13.4754 8.14441 15.0644 8.14441 16.8747V39.0353C8.14441 41.298 10.1023 42.9921 12.252 42.9921H27.231C28.5887 42.9921 29.6933 44.192 29.6933 45.4519H31.3348C31.3348 44.192 32.4393 42.9921 33.7971 42.9921H48.7761C50.9257 42.9921 52.4795 41.298 52.4795 39.0353V16.8747C52.4794 15.0644 51.3857 13.4754 49.8019 13.4754ZM35.8489 11.3757H45.6981C46.6034 11.3757 47.14 12.2759 47.14 13.1812V36.573C47.14 37.4783 46.6034 38.0727 45.6981 38.0727H35.8489C34.0646 38.0727 32.3816 38.9822 31.1218 40.1992V16.0539C31.1218 13.5648 33.3598 11.3757 35.8489 11.3757ZM13.4838 13.1812C13.4838 12.2759 14.4245 11.3757 15.3298 11.3757H25.179C27.6681 11.3757 29.502 13.5647 29.502 16.0539V40.1895C28.6621 38.9756 26.9608 38.0727 25.179 38.0727H15.3299C14.4246 38.0727 13.4838 37.4783 13.4838 36.573V13.1812H13.4838ZM12.252 41.3723C11.0076 41.3723 9.76417 40.393 9.76417 39.0353V16.8747C9.76417 15.985 10.5587 15.0953 11.226 15.0953H11.8639V36.573C11.8639 38.3832 13.5196 39.6925 15.3298 39.6925H25.179C26.7454 39.6925 28.1269 40.5144 28.9367 41.7293C28.4164 41.4901 27.8399 41.3723 27.2309 41.3723H12.252ZM50.7996 39.0353C50.7996 40.393 50.0203 41.3723 48.7759 41.3723H33.797C33.1879 41.3723 32.6114 41.4902 32.0911 41.7293C32.9009 40.5144 34.2825 39.6925 35.8489 39.6925H45.698C47.5083 39.6925 48.7597 38.3832 48.7597 36.573V15.0953H49.8018C50.4691 15.0953 50.7995 15.985 50.7995 16.8747V39.0353H50.7996Z" fill="#262626"/>
<path d="M26.2023 31.9126C26.2023 32.366 25.8348 32.7334 25.3815 32.7334H17.1842C16.7309 32.7334 16.3634 32.366 16.3634 31.9126V28.6347C16.3634 28.1814 16.7309 27.814 17.1842 27.814H25.3815C25.8348 27.814 26.2023 28.1814 26.2023 28.6347V31.9126ZM44.2603 31.9126C44.2603 32.366 43.8928 32.7334 43.4395 32.7334H35.2421C34.7888 32.7334 34.4214 32.366 34.4214 31.9126V28.6347C34.4214 28.1814 34.7888 27.814 35.2421 27.814H43.4395C43.8928 27.814 44.2603 28.1814 44.2603 28.6347V31.9126Z" fill="#E0E0E0"/>
</svg>
