<svg width="37" height="29" viewBox="0 0 37 29" fill="none" xmlns="http://www.w3.org/2000/svg">
<path d="M8.00742 7.25697L9.20065 1.02816C9.21465 0.950625 9.25533 0.880428 9.31563 0.82972C9.37593 0.779012 9.45206 0.750984 9.53085 0.750488H26.4912C26.57 0.750984 26.6462 0.779012 26.7065 0.82972C26.7668 0.880428 26.8074 0.950625 26.8214 1.02816L28.0147 7.25697H8.00742Z" fill="#FDCA89"/>
<path d="M26.1535 1.50093L27.1066 6.50649H8.91547L9.86855 1.50093H26.1535ZM26.4987 7.43499e-06H9.53085C9.278 0.000816845 9.03333 0.0896513 8.83886 0.25125C8.6444 0.412849 8.51227 0.637125 8.46519 0.88555L7.09936 8.00741H28.9227L27.5644 0.88555C27.5171 0.635858 27.3838 0.410604 27.1878 0.248856C26.9918 0.0871078 26.7454 -0.00093161 26.4912 7.43499e-06H26.4987Z" fill="#5C2D51"/>
<path d="M0.750481 5.25342H35.2716V27.7672H0.750481V5.25342Z" fill="#9FDBAD"/>
<path d="M33.7707 6.00385C33.9697 6.00385 34.1606 6.08292 34.3013 6.22365C34.4421 6.36439 34.5211 6.55527 34.5211 6.75431V26.2663C34.5211 26.4653 34.4421 26.6562 34.3013 26.7969C34.1606 26.9377 33.9697 27.0167 33.7707 27.0167H2.25138C2.05234 27.0167 1.86146 26.9377 1.72072 26.7969C1.57999 26.6562 1.50092 26.4653 1.50092 26.2663V6.75431C1.50092 6.55527 1.57999 6.36439 1.72072 6.22365C1.86146 6.08292 2.05234 6.00385 2.25138 6.00385H33.7707ZM33.7707 4.50293H2.25138C1.65428 4.50293 1.08163 4.74013 0.659414 5.16234C0.237198 5.58456 0 6.15721 0 6.75431L0 26.2663C0 26.8634 0.237198 27.436 0.659414 27.8582C1.08163 28.2804 1.65428 28.5176 2.25138 28.5176H33.7707C34.3678 28.5176 34.9404 28.2804 35.3626 27.8582C35.7849 27.436 36.0221 26.8634 36.0221 26.2663V6.75431C36.0221 6.15721 35.7849 5.58456 35.3626 5.16234C34.9404 4.74013 34.3678 4.50293 33.7707 4.50293Z" fill="#5C2D51"/>
<path d="M18.011 24.6003C16.411 24.6003 14.8469 24.1259 13.5165 23.2369C12.1861 22.348 11.1492 21.0845 10.5369 19.6063C9.92456 18.128 9.76435 16.5014 10.0765 14.9321C10.3887 13.3628 11.1591 11.9213 12.2905 10.7899C13.4219 9.65851 14.8634 8.88801 16.4327 8.57586C18.002 8.26371 19.6287 8.42392 21.1069 9.03622C22.5851 9.64853 23.8486 10.6854 24.7376 12.0158C25.6265 13.3462 26.101 14.9103 26.101 16.5104C26.097 18.6547 25.2434 20.7101 23.7271 22.2264C22.2108 23.7427 20.1554 24.5964 18.011 24.6003Z" fill="white"/>
<path d="M18.011 9.17084C19.4626 9.17084 20.8816 9.60129 22.0886 10.4078C23.2956 11.2142 24.2363 12.3605 24.7918 13.7016C25.3473 15.0427 25.4927 16.5185 25.2095 17.9422C24.9263 19.3659 24.2272 20.6737 23.2008 21.7001C22.1743 22.7266 20.8666 23.4256 19.4429 23.7088C18.0191 23.992 16.5434 23.8467 15.2023 23.2911C13.8612 22.7356 12.7149 21.7949 11.9084 20.5879C11.1019 19.381 10.6715 17.9619 10.6715 16.5103C10.6735 14.5644 11.4474 12.6987 12.8234 11.3227C14.1994 9.94673 16.065 9.17283 18.011 9.17084ZM18.011 7.66992C16.2625 7.66992 14.5533 8.1884 13.0995 9.1598C11.6457 10.1312 10.5126 11.5119 9.84351 13.1273C9.1744 14.7426 8.99933 16.5201 9.34044 18.235C9.68155 19.9499 10.5235 21.5251 11.7599 22.7615C12.9962 23.9978 14.5714 24.8398 16.2863 25.1809C18.0012 25.522 19.7787 25.3469 21.3941 24.6778C23.0094 24.0087 24.3901 22.8756 25.3615 21.4218C26.3329 19.968 26.8514 18.2588 26.8514 16.5103C26.8514 15.3494 26.6227 14.1998 26.1785 13.1273C25.7342 12.0547 25.083 11.0801 24.2621 10.2592C23.4412 9.43831 22.4666 8.78713 21.3941 8.34286C20.3215 7.89859 19.1719 7.66992 18.011 7.66992Z" fill="#5C2D51"/>
<path d="M14.664 16.51C14.6639 16.9495 14.7505 17.3848 14.9187 17.7909C15.0869 18.197 15.3334 18.566 15.6442 18.8769C15.955 19.1877 16.324 19.4343 16.7301 19.6025C17.1362 19.7707 17.5715 19.8573 18.011 19.8573C18.4506 19.8573 18.8859 19.7707 19.292 19.6025C19.6981 19.4343 20.0671 19.1877 20.3779 18.8769C20.6887 18.566 20.9352 18.197 21.1034 17.7909C21.2716 17.3848 21.3581 16.9495 21.3581 16.51C21.3581 16.0704 21.2716 15.6351 21.1034 15.229C20.9352 14.8229 20.6887 14.4539 20.3779 14.143C20.0671 13.8322 19.6981 13.5856 19.292 13.4174C18.8859 13.2492 18.4506 13.1626 18.011 13.1626C17.5715 13.1626 17.1362 13.2492 16.7301 13.4174C16.324 13.5856 15.955 13.8322 15.6442 14.143C15.3334 14.4539 15.0869 14.8229 14.9187 15.229C14.7505 15.6351 14.6639 16.0704 14.664 16.51Z" fill="#9FDBAD"/>
<path d="M18.011 13.9135C18.5246 13.9135 19.0266 14.0658 19.4536 14.3511C19.8806 14.6364 20.2134 15.042 20.41 15.5164C20.6065 15.9909 20.6579 16.513 20.5577 17.0167C20.4575 17.5204 20.2102 17.983 19.8471 18.3462C19.484 18.7093 19.0213 18.9566 18.5176 19.0568C18.0139 19.157 17.4918 19.1056 17.0174 18.909C16.5429 18.7125 16.1374 18.3797 15.852 17.9527C15.5667 17.5257 15.4144 17.0237 15.4144 16.5101C15.4144 16.1691 15.4816 15.8315 15.6121 15.5164C15.7426 15.2014 15.9338 14.9152 16.175 14.674C16.4161 14.4329 16.7023 14.2417 17.0174 14.1112C17.3324 13.9807 17.67 13.9135 18.011 13.9135ZM18.011 12.4126C17.2006 12.4126 16.4084 12.6529 15.7346 13.1032C15.0607 13.5534 14.5356 14.1933 14.2254 14.9421C13.9153 15.6908 13.8341 16.5147 13.9922 17.3095C14.1504 18.1043 14.5406 18.8344 15.1136 19.4075C15.6867 19.9805 16.4168 20.3708 17.2116 20.5289C18.0065 20.687 18.8304 20.6058 19.5791 20.2957C20.3278 19.9856 20.9677 19.4604 21.418 18.7866C21.8682 18.1127 22.1085 17.3205 22.1085 16.5101C22.1085 15.4234 21.6768 14.3812 20.9084 13.6127C20.14 12.8443 19.0978 12.4126 18.011 12.4126Z" fill="#5C2D51"/>
<path d="M28.0522 7.81982H32.7726V10.2963H28.0522V7.81982Z" fill="#F05071"/>
<path d="M32.0221 8.57026V9.54585H28.8026V8.57026H32.0221ZM32.1422 7.06934H28.6901C28.3238 7.06934 27.9726 7.21482 27.7137 7.47378C27.4547 7.73274 27.3092 8.08396 27.3092 8.45018V9.65842C27.3092 10.0246 27.4547 10.3759 27.7137 10.6348C27.9726 10.8938 28.3238 11.0393 28.6901 11.0393H32.1422C32.5084 11.0393 32.8596 10.8938 33.1186 10.6348C33.3775 10.3759 33.523 10.0246 33.523 9.65842V8.45018C33.523 8.08396 33.3775 7.73274 33.1186 7.47378C32.8596 7.21482 32.5084 7.06934 32.1422 7.06934Z" fill="#5C2D51"/>
</svg>
