<svg width="49" height="49" viewBox="0 0 49 49" fill="none" xmlns="http://www.w3.org/2000/svg">
<rect x="0.5" y="0.5" width="48" height="48" rx="4.5" stroke="white"/>
<path fill-rule="evenodd" clip-rule="evenodd" d="M16.4087 14C15.2698 14 14.2744 14.5865 13.6627 15.4599C13.2444 16.0571 13 16.7937 13 17.5833V30.4166C13 32.3525 14.4848 34 16.4087 34H25.4174C26.0898 34 26.6348 33.4404 26.6348 32.75C26.6348 32.0596 26.0898 31.5 25.4174 31.5H16.4087C15.9122 31.5 15.4348 31.0582 15.4348 30.4166V18.9346L22.4707 26.887C23.9198 28.5249 26.4279 28.5249 27.8771 26.887L34.913 18.9346V24.1666C34.913 24.857 35.4581 25.4166 36.1304 25.4166C36.8028 25.4166 37.3478 24.857 37.3478 24.1666V17.5833C37.3478 16.7937 37.1035 16.0571 36.6852 15.4599C36.0735 14.5865 35.078 14 33.9391 14H16.4087ZM24.2728 25.2059L16.5702 16.5H33.7776L26.075 25.2059C25.592 25.7519 24.7559 25.7519 24.2728 25.2059ZM31.2609 31.3334C31.2609 30.8149 31.7254 30.25 32.4783 30.25C33.2311 30.25 33.6957 30.8149 33.6957 31.3334C33.6957 32.0237 34.2407 32.5834 34.913 32.5834C35.5854 32.5834 36.1304 32.0237 36.1304 31.3334C36.1304 30.8149 36.595 30.25 37.3478 30.25C38.1007 30.25 38.5652 30.8149 38.5652 31.3334C38.5652 32.1229 38.0797 33.0751 37.1518 34.123C36.4774 34.8847 35.6677 35.5875 34.913 36.1865C34.1584 35.5875 33.3487 34.8847 32.6743 34.123C31.7464 33.0751 31.2609 32.1229 31.2609 31.3334ZM32.4783 27.75C33.3912 27.75 34.2549 28.0887 34.913 28.6625C35.5712 28.0887 36.4349 27.75 37.3478 27.75C39.2845 27.75 41 29.2745 41 31.3334C41 33.0851 39.9904 34.6335 38.9534 35.8047C37.8848 37.0115 36.585 38.041 35.6331 38.7578C35.2045 39.0807 34.6216 39.0807 34.193 38.7578C33.2411 38.041 31.9413 37.0115 30.8726 35.8047C29.8357 34.6335 28.8261 33.0851 28.8261 31.3334C28.8261 29.2745 30.5416 27.75 32.4783 27.75Z" fill="white"/>
</svg>
