<svg width="39" height="39" viewBox="0 0 39 39" fill="none" xmlns="http://www.w3.org/2000/svg">
<rect x="1" y="1.7124" width="36.2874" height="36.2874" rx="5" stroke="white" stroke-width="2"/>
<path d="M24.9072 16.47L24.429 18.8454C24.2727 19.6275 23.521 20.2401 22.7178 20.2401H21.0988V31.1856C21.0988 32.0483 20.4416 32.7484 19.5743 32.7484H17.2153C16.348 32.7484 15.6424 32.0467 15.6424 31.1848V20.2401H14.8564C13.989 20.2401 13.2834 19.5392 13.2834 18.6766V16.3317C13.2834 15.4698 13.989 14.7681 14.8564 14.7681H15.6424V12.4349C15.6424 9.86655 17.7334 7.77637 20.3127 7.75449C20.3291 7.75371 20.3432 7.74512 20.3604 7.74512H23.5062C23.9399 7.74512 24.2243 8.09439 24.2243 8.52571V12.4326C24.2243 12.8647 23.9399 13.2171 23.5062 13.2171H21.1464L21.1457 14.7681H23.5046C23.9469 14.7681 24.3548 14.9549 24.622 15.2799C24.89 15.6042 24.9939 16.0386 24.9072 16.47ZM20.3893 16.3317C20.3783 16.3324 20.3698 16.3379 20.3588 16.3379C19.9244 16.3371 19.572 15.9871 19.5727 15.5558V15.5503L19.5743 12.4349C19.5743 12.0028 19.9259 11.6536 20.3604 11.6536H22.7193V9.30865H20.3908C20.3776 9.30865 20.3666 9.31568 20.3526 9.31568C18.6226 9.31568 17.2153 10.7151 17.2153 12.4349V15.562C17.2153 15.9941 16.8629 16.3442 16.4285 16.3442C16.4074 16.3442 16.3894 16.3332 16.3683 16.3317H14.8564V18.6766H16.4285C16.8629 18.6766 17.2153 19.0266 17.2153 19.4587C17.2153 19.4994 17.1981 19.5337 17.1919 19.5728V31.1856L19.5743 31.1848V19.4665C19.5743 19.4634 19.5727 19.4611 19.5727 19.4587C19.5727 19.0266 19.9244 18.6766 20.3588 18.6766H22.7178C22.7748 18.6766 22.8764 18.5945 22.8866 18.5398L23.3312 16.3317H20.3893Z" fill="white"/>
</svg>
