<svg width="39" height="39" viewBox="0 0 39 39" fill="none" xmlns="http://www.w3.org/2000/svg">
<path d="M16.3543 32.0089V28.559L16.3997 26.1073C16.4542 25.3446 16.7514 24.6257 17.2403 24.0693C17.2474 24.061 17.2546 24.0529 17.2619 24.0449C17.2807 24.0238 17.2683 23.9899 17.2403 23.9864C13.9734 23.5786 10.5696 22.1992 10.5696 16.1936C10.5483 14.7145 11.0309 13.2806 11.9229 12.1559C11.9541 12.1166 11.9857 12.0776 12.018 12.0391C12.0599 11.9889 12.0736 11.9208 12.0544 11.8583C12.0532 11.8545 12.052 11.8507 12.0509 11.8469C12.0291 11.7755 12.0087 11.7037 11.9896 11.6317C11.6617 10.3936 11.7322 9.07104 12.1937 7.87746C12.1971 7.86865 12.2005 7.85984 12.2039 7.85104C12.2212 7.80711 12.2573 7.77353 12.3038 7.76524C12.5935 7.71359 13.7642 7.64448 16.0054 9.19213C16.0751 9.24029 16.1459 9.29003 16.2178 9.34138C16.2696 9.37845 16.3356 9.38981 16.3969 9.37236L16.4027 9.3707C16.523 9.3365 16.6437 9.30405 16.7646 9.27333C18.895 8.7322 21.1148 8.7322 23.2452 9.27333C23.3599 9.30245 23.4742 9.33314 23.5884 9.36539L23.5958 9.3675C23.6679 9.38794 23.7454 9.37459 23.8065 9.33107C23.8733 9.28336 23.9393 9.23706 24.0044 9.19213C26.2403 7.64774 27.4045 7.71331 27.6956 7.76492C27.7429 7.77332 27.7798 7.8075 27.7976 7.85223C27.7999 7.85798 27.8021 7.86373 27.8044 7.86948C28.2736 9.0636 28.3481 10.3901 28.02 11.6317C28.0005 11.7057 27.9795 11.7794 27.9571 11.8527C27.9369 11.9187 27.9514 11.9905 27.9955 12.0435L27.9997 12.0485C28.0292 12.084 28.0583 12.1198 28.0869 12.1559C28.9789 13.2806 29.4614 14.7145 29.4401 16.1936C29.4401 22.232 26.0122 23.5752 22.7297 23.9412C22.7107 23.9432 22.7022 23.966 22.715 23.9802C22.7199 23.9855 22.7249 23.9909 22.7297 23.9963C23.0609 24.3653 23.3178 24.8031 23.4842 25.2829C23.6581 25.7844 23.7288 26.32 23.6918 26.8534V32.0089" stroke="white" stroke-width="2" stroke-linecap="round" stroke-linejoin="round"/>
<path d="M8.95142 27.1562C9.44903 27.2267 9.92411 27.4101 10.3407 27.6921C10.7573 27.9742 11.1045 28.3476 11.356 28.7844C11.5696 29.1731 11.8577 29.5158 12.2036 29.7925C12.5496 30.0693 12.9466 30.2748 13.3719 30.3972C13.7971 30.5198 14.2423 30.5567 14.6819 30.506C15.1214 30.4555 15.5467 30.3182 15.9333 30.1023" stroke="white" stroke-width="2" stroke-linecap="round" stroke-linejoin="round"/>
<rect x="1.35632" y="1.7124" width="36.2874" height="36.2874" rx="5" stroke="white" stroke-width="2"/>
</svg>
