<svg width="39" height="39" viewBox="0 0 39 39" fill="none" xmlns="http://www.w3.org/2000/svg">
<path d="M24.339 8.52637H14.7866C12.9195 8.52779 11.1292 9.27012 9.80899 10.5904C8.48875 11.9106 7.74642 13.7008 7.745 15.5679V25.1204C7.74613 26.9877 8.48834 28.7782 9.80862 30.0986C11.1289 31.4191 12.9193 32.1616 14.7866 32.163H24.339C26.2062 32.1613 27.9964 31.4187 29.3166 30.0983C30.6368 28.7779 31.3791 26.9876 31.3806 25.1204V15.5679C31.3797 13.7007 30.6376 11.9101 29.3172 10.5897C27.9968 9.26937 26.2063 8.52722 24.339 8.52637ZM29.004 25.1204C29.0037 26.3575 28.5121 27.5439 27.6373 28.4187C26.7625 29.2935 25.5761 29.7851 24.339 29.7854H14.7866C14.174 29.7854 13.5674 29.6647 13.0015 29.4303C12.4356 29.1958 11.9214 28.8522 11.4883 28.419C11.0552 27.9858 10.7117 27.4715 10.4773 26.9055C10.243 26.3395 10.1225 25.7329 10.1226 25.1204V15.5679C10.1225 14.9554 10.243 14.3489 10.4774 13.783C10.7117 13.217 11.0552 12.7028 11.4883 12.2697C11.9215 11.8366 12.4357 11.4931 13.0016 11.2587C13.5675 11.0244 14.174 10.9039 14.7866 10.904H24.339C25.5759 10.9043 26.762 11.3958 27.6366 12.2703C28.5112 13.1449 29.0026 14.3311 29.0029 15.5679L29.004 25.1204Z" fill="white"/>
<path d="M19.5632 14.2332C16.1917 14.2332 13.452 16.974 13.452 20.3444C13.452 23.7148 16.1928 26.4555 19.5632 26.4555C22.9335 26.4555 25.6743 23.7148 25.6743 20.3444C25.6743 16.974 22.9346 14.2332 19.5632 14.2332ZM19.5632 24.0779C18.573 24.078 17.6233 23.6848 16.923 22.9848C16.2228 22.2847 15.8293 21.3351 15.8291 20.3449C15.829 19.3547 16.2222 18.405 16.9223 17.7048C17.6223 17.0045 18.5719 16.611 19.5621 16.6109C20.5523 16.6107 21.502 17.0039 22.2022 17.704C22.9025 18.4041 23.296 19.3537 23.2961 20.3438C23.2963 21.334 22.9031 22.2837 22.203 22.984C21.5029 23.6843 20.5534 24.0778 19.5632 24.0779ZM25.6872 12.814C25.9767 12.8142 26.2597 12.9002 26.5004 13.0612C26.741 13.2222 26.9286 13.4509 27.0393 13.7185C27.15 13.986 27.1789 14.2803 27.1223 14.5643C27.0658 14.8483 26.9264 15.1091 26.7216 15.3138C26.5169 15.5186 26.2561 15.658 25.9721 15.7146C25.6881 15.7711 25.3938 15.7422 25.1262 15.6315C24.8587 15.5208 24.63 15.3333 24.469 15.0926C24.308 14.852 24.222 14.569 24.2217 14.2794C24.2217 13.4715 24.7697 12.814 25.6872 12.814Z" fill="white"/>
<rect x="1.71252" y="1.7124" width="36.2874" height="36.2874" rx="5" stroke="white" stroke-width="2"/>
</svg>
