<svg width="44" height="44" viewBox="0 0 44 44" fill="none" xmlns="http://www.w3.org/2000/svg">
<path d="M40.3333 5.49984C40.3333 5.01361 40.1401 4.54729 39.7963 4.20347C39.4525 3.85966 38.9862 3.6665 38.5 3.6665H16.5C16.0137 3.6665 15.5474 3.85966 15.2036 4.20347C14.8598 4.54729 14.6666 5.01361 14.6666 5.49984V26.6858C13.5568 26.026 12.2911 25.6741 11 25.6665C9.54957 25.6665 8.13174 26.0966 6.92578 26.9024C5.71982 27.7082 4.77989 28.8535 4.22485 30.1935C3.6698 31.5335 3.52458 33.008 3.80754 34.4305C4.0905 35.853 4.78893 37.1597 5.81451 38.1853C6.8401 39.2109 8.14677 39.9093 9.5693 40.1923C10.9918 40.4752 12.4663 40.33 13.8063 39.775C15.1463 39.2199 16.2916 38.28 17.0974 37.074C17.9032 35.8681 18.3333 34.4502 18.3333 32.9998V14.6665H36.6666V26.6858C35.5568 26.026 34.2911 25.6741 33 25.6665C31.5496 25.6665 30.1317 26.0966 28.9258 26.9024C27.7198 27.7082 26.7799 28.8535 26.2248 30.1935C25.6698 31.5335 25.5246 33.008 25.8075 34.4305C26.0905 35.853 26.7889 37.1597 27.8145 38.1853C28.8401 39.2109 30.1468 39.9093 31.5693 40.1923C32.9918 40.4752 34.4663 40.33 35.8063 39.775C37.1463 39.2199 38.2916 38.28 39.0974 37.074C39.9032 35.8681 40.3333 34.4502 40.3333 32.9998V5.49984ZM11 36.6665C10.2748 36.6665 9.56585 36.4515 8.96287 36.0486C8.35989 35.6457 7.88992 35.073 7.6124 34.403C7.33488 33.733 7.26227 32.9958 7.40375 32.2845C7.54523 31.5732 7.89444 30.9199 8.40724 30.4071C8.92003 29.8943 9.57337 29.5451 10.2846 29.4036C10.9959 29.2621 11.7331 29.3348 12.4031 29.6123C13.0731 29.8898 13.6458 30.3598 14.0487 30.9627C14.4516 31.5657 14.6666 32.2746 14.6666 32.9998C14.6666 33.9723 14.2803 34.9049 13.5927 35.5926C12.9051 36.2802 11.9724 36.6665 11 36.6665ZM18.3333 10.9998V7.33317H36.6666V10.9998H18.3333ZM33 36.6665C32.2748 36.6665 31.5658 36.4515 30.9629 36.0486C30.3599 35.6457 29.8899 35.073 29.6124 34.403C29.3349 33.733 29.2623 32.9958 29.4037 32.2845C29.5452 31.5732 29.8944 30.9199 30.4072 30.4071C30.92 29.8943 31.5734 29.5451 32.2846 29.4036C32.9959 29.2621 33.7331 29.3348 34.4031 29.6123C35.0731 29.8898 35.6458 30.3598 36.0487 30.9627C36.4516 31.5657 36.6666 32.2746 36.6666 32.9998C36.6666 33.9723 36.2803 34.9049 35.5927 35.5926C34.9051 36.2802 33.9724 36.6665 33 36.6665Z" fill="#C3CC6A"/>
</svg>
