<svg width="49" height="49" viewBox="0 0 49 49" fill="none" xmlns="http://www.w3.org/2000/svg">
<path fill-rule="evenodd" clip-rule="evenodd" d="M25.678 19.4634C25.4742 19.4744 25.2797 19.5539 25.1247 19.6897C24.9697 19.8254 24.8629 20.0097 24.8209 20.2139C24.7706 20.4595 24.8178 20.7155 24.9521 20.9256C25.0863 21.1356 25.2967 21.2826 25.5369 21.3341C27.0486 21.6597 27.9999 23.1531 27.6814 24.6986C27.6311 24.9442 27.6783 25.2002 27.8125 25.4103C27.9468 25.6203 28.1572 25.7673 28.3974 25.8188C28.6374 25.8703 28.8876 25.8223 29.093 25.6854C29.2984 25.5485 29.4423 25.3339 29.4932 25.0886C30.0179 22.5421 28.4093 20.0183 25.9185 19.4818C25.8394 19.465 25.7586 19.4588 25.678 19.4634Z" fill="white"/>
<path fill-rule="evenodd" clip-rule="evenodd" d="M26.3922 15.7622C26.1979 15.7838 26.0152 15.8676 25.8703 16.0018C25.7255 16.1359 25.6259 16.3135 25.5858 16.5091C25.5354 16.7544 25.5823 17.0102 25.7162 17.2202C25.8501 17.4302 26.0601 17.5774 26.3 17.6293C29.8128 18.386 32.045 21.887 31.3049 25.4785C31.2797 25.6002 31.2783 25.7259 31.3007 25.8482C31.323 25.9705 31.3688 26.0871 31.4353 26.1914C31.5018 26.2956 31.5878 26.3854 31.6883 26.4556C31.7888 26.5258 31.9018 26.5751 32.0209 26.6006C32.2612 26.652 32.5116 26.6038 32.717 26.4665C32.9225 26.3292 33.0663 26.1141 33.1167 25.8685C34.0631 21.276 31.1735 16.7446 26.6815 15.777C26.5864 15.7566 26.4888 15.7516 26.3922 15.7622Z" fill="white"/>
<path fill-rule="evenodd" clip-rule="evenodd" d="M27.0829 12.0687C26.9031 12.1035 26.7375 12.1919 26.6068 12.3228C26.4762 12.4538 26.3864 12.6214 26.3488 12.8045C26.2985 13.0498 26.3454 13.3056 26.4793 13.5156C26.6132 13.7256 26.8231 13.8728 27.063 13.9247C32.5771 15.1125 36.0902 20.6211 34.9285 26.2586C34.9033 26.3803 34.9019 26.5059 34.9242 26.6283C34.9466 26.7506 34.9923 26.8672 35.0589 26.9714C35.1254 27.0757 35.2113 27.1655 35.3118 27.2357C35.4123 27.3059 35.5253 27.3552 35.6445 27.3807C35.8847 27.4321 36.1351 27.3839 36.3406 27.2466C36.5461 27.1093 36.6898 26.8942 36.7402 26.6486C38.1082 20.0101 33.9378 13.4711 27.4446 12.0724C27.3254 12.0469 27.2025 12.0457 27.0829 12.0687Z" fill="white"/>
<path fill-rule="evenodd" clip-rule="evenodd" d="M15.6102 12.0005C14.6984 11.9836 13.8497 12.4104 13.341 13.2723C10.2956 18.4324 10.2026 24.9124 13.1728 30.1889C13.1735 30.1908 13.1741 30.1927 13.1747 30.1945C16.1712 35.4564 21.7195 38.6104 27.6235 38.5003C28.7486 38.4794 29.6152 37.7815 30.0049 36.7645L31.3357 33.2928C31.8122 32.0491 31.4488 30.6222 30.4388 29.7749L28.0503 27.7729C26.8213 26.7419 24.9401 27.0871 24.1375 28.4901L23.2424 30.0522C21.7195 29.2392 20.3589 28.0788 19.4562 26.4881V26.4862C18.5123 24.815 18.224 22.9399 18.3478 21.1068L20.042 21.2177C21.6244 21.3216 22.9229 19.8516 22.662 18.2525L22.1557 15.1487C21.9409 13.8316 20.9157 12.7982 19.6244 12.5977L16.0044 12.0357C15.8724 12.0152 15.7405 12.0028 15.6102 12.0005ZM15.7259 13.9064L19.3458 14.4702C19.8526 14.5489 20.2452 14.9442 20.3295 15.4611L20.8357 18.5649C20.9074 19.0043 20.5943 19.3569 20.1595 19.3283L17.4853 19.1527C17.2555 19.1378 17.0285 19.211 16.8486 19.358C16.6688 19.5049 16.5489 19.7152 16.5125 19.9476C16.1195 22.4579 16.5423 25.1129 17.8541 27.4344C17.8541 27.4351 17.8541 27.4357 17.8541 27.4364C19.1075 29.6456 21.0211 31.2956 23.2116 32.2316C23.4184 32.3198 23.6495 32.3283 23.862 32.2555C24.0744 32.1828 24.2539 32.0337 24.367 31.836L25.7358 29.4439C25.9812 29.015 26.501 28.9198 26.8767 29.235L29.2635 31.2389C29.6588 31.5706 29.7972 32.1145 29.6107 32.6013L28.2817 36.073C28.2175 36.2405 27.7098 36.605 27.591 36.6073C22.3525 36.7049 17.4333 33.9088 14.7749 29.2406C12.1427 24.5603 12.2275 18.8257 14.9267 14.2521C14.9881 14.1481 15.5517 13.8793 15.7259 13.9064Z" fill="white"/>
<rect x="0.5" y="0.5" width="48" height="48" rx="4.5" stroke="white"/>
</svg>
