<svg width="24" height="33" viewBox="0 0 24 33" fill="none" xmlns="http://www.w3.org/2000/svg">
<path d="M23.1357 9.32719C23.069 9.14453 22.2651 8.71469 19.3808 8.92141L18.6021 8.97828L18.8154 8.22687C19.7855 4.81437 19.4738 3.74031 19.289 3.63313C19.0811 3.51281 17.8769 3.83875 15.1294 6.77656L14.4021 7.55422L14.1943 6.51078C13.316 2.11938 12.2747 0.640625 11.9346 0.640625C11.5944 0.640625 10.5532 2.11938 9.6749 6.51188L9.46709 7.55531L8.73974 6.77766C5.98677 3.83438 4.78365 3.51609 4.58021 3.63422C4.39537 3.74141 4.08365 4.81547 5.0538 8.22797L5.26709 8.97937L4.48724 8.9225C1.6063 8.71578 0.800211 9.14453 0.733492 9.32719C0.421773 10.1847 4.90615 13.4167 8.02662 14.8594H15.8426C18.963 13.4178 23.4474 10.1847 23.1357 9.32719Z" fill="#C3CC6A"/>
<path d="M23.1357 9.32723C23.1182 9.2802 23.0504 9.21785 22.9147 9.15332C20.1322 11.3124 16.2549 12.6719 11.9346 12.6719C7.61427 12.6719 3.73693 11.3124 0.95443 9.15332C0.818805 9.21785 0.750992 9.28129 0.733492 9.32723C0.421773 10.1847 4.90615 13.4168 8.02662 14.8594H15.8426C18.963 13.4179 23.4474 10.1847 23.1357 9.32723Z" fill="#6F9B45"/>
<path d="M20.1377 29.0781H18.9718L20.2022 19.2344H21.2314V14.8594H2.6377V19.2344H3.66691L4.89738 29.0781H3.73145V32.3594H20.1377V29.0781Z" fill="#AF9480"/>
<path d="M19.8676 21.9688H4.01803L3.66693 19.2344H20.2022L19.8676 21.9688Z" fill="#716558"/>
<path d="M23.6497 9.14125C23.4299 8.53641 22.2683 8.32094 20.7885 8.32094C20.3302 8.32094 19.8424 8.34172 19.3414 8.37781C20.0141 6.01422 20.3914 3.64078 19.5624 3.16172C19.4563 3.10047 19.3338 3.07203 19.1971 3.07203C18.17 3.07203 16.3325 4.68969 14.7302 6.40578C14.1538 3.52156 13.1191 0.09375 11.9346 0.09375C10.75 0.09375 9.71535 3.52156 9.13785 6.40469C7.53441 4.68969 5.69801 3.07094 4.67098 3.07094C4.53426 3.07094 4.41176 3.09938 4.30566 3.16063C3.4766 3.63969 3.85504 6.01313 4.52769 8.37672C4.02676 8.34063 3.53785 8.31984 3.08066 8.31984C1.60082 8.31984 0.439256 8.53531 0.219413 9.14016C-0.221369 10.3509 3.20754 12.7823 5.84019 14.3114H2.09082V19.7802H3.18457L4.27832 28.5302H3.18457V32.9052H20.6846V28.5302H19.5908L20.6846 19.7802H21.7783V14.3114H18.0289C20.6616 12.7834 24.0905 10.352 23.6497 9.14125ZM19.5908 31.8125H4.27832V29.625H19.5908V31.8125ZM18.4883 28.5313H5.38082L4.28707 19.7813H19.5821L18.4883 28.5313ZM20.6846 18.6875H3.18457V15.4063H20.6846V18.6875ZM15.7605 14.3125H8.10973C5.58098 13.1914 2.13238 10.6058 1.40285 9.57656C1.66863 9.50219 2.17504 9.41469 3.08066 9.41469C3.49301 9.41469 3.95348 9.43328 4.44894 9.46828L6.00644 9.58094L5.57879 8.07813C4.92582 5.78125 4.89519 4.70281 4.93894 4.25328C5.44426 4.48625 6.54785 5.23547 8.33832 7.15172L9.79191 8.70703L10.2097 6.61906C10.8146 3.59922 11.5157 1.92031 11.9346 1.34391C12.3535 1.92031 13.0546 3.59922 13.6583 6.61797L14.0761 8.70594L15.5297 7.15063C17.3224 5.23219 18.426 4.48406 18.9291 4.25109C18.9739 4.69953 18.9433 5.77797 18.2893 8.07703L17.8627 9.57985L19.4202 9.46719C19.9168 9.43109 20.3772 9.41359 20.7885 9.41359C21.6941 9.41359 22.1994 9.50109 22.4663 9.57547C21.7378 10.6058 18.2893 13.1914 15.7605 14.3125Z" fill="#231F20"/>
</svg>
