<svg width="353" height="353" viewBox="0 0 353 353" fill="none" xmlns="http://www.w3.org/2000/svg">
<path d="M168.801 163.169L176.32 191.23L320.737 152.534L313.218 124.472L168.801 163.169Z" fill="#333236"/>
<path d="M172.627 177.438L176.322 191.229L320.739 152.532L317.044 138.741L172.627 177.438Z" fill="#272629"/>
<path d="M330.13 159.498C333.263 158.954 336.023 157.118 337.734 154.439C339.446 151.759 339.953 148.484 339.13 145.412L332.706 121.439C331.883 118.367 329.807 115.784 326.985 114.32C324.162 112.855 320.855 112.645 317.869 113.74L285.801 125.509C283.146 126.483 281.673 129.321 282.406 132.053L290.261 161.369C290.993 164.101 293.688 165.822 296.473 165.339L330.13 159.498Z" fill="#F1B559"/>
<path d="M270.897 135.853L278.405 163.873L290.088 160.742L282.581 132.722L270.897 135.853Z" fill="#272629"/>
<path d="M337.734 154.439C339.447 151.759 339.953 148.484 339.13 145.412L335.918 133.425L286.333 146.711L290.261 161.37C290.993 164.101 293.687 165.823 296.473 165.339L330.13 159.497C333.263 158.954 336.022 157.118 337.734 154.439Z" fill="#EDA637"/>
<path d="M123.385 241.675C128.133 234.431 136.812 230.788 145.308 232.473C149.739 233.351 154.258 233.27 158.68 232.085C178.603 226.747 189.026 201.045 181.962 174.678C174.897 148.311 153.019 131.265 133.096 136.603C128.674 137.788 124.72 139.977 121.322 142.954C114.805 148.662 105.469 149.846 97.734 145.946C86.2858 140.175 73.2855 138.38 60.5821 141.784C30.656 149.802 26.2797 180.263 35.3124 213.972C44.3452 247.681 63.3651 271.874 93.2918 263.855C105.995 260.452 116.356 252.397 123.385 241.675Z" fill="#A56200"/>
<path d="M123.385 241.676C128.133 234.431 136.812 230.788 145.308 232.473C149.739 233.351 154.258 233.27 158.68 232.085C178.603 226.747 189.026 201.045 181.962 174.679L35.3121 213.973C44.3444 247.682 63.3648 271.874 93.2914 263.856C105.995 260.452 116.356 252.397 123.385 241.676Z" fill="#854F00"/>
<path d="M120.565 206.584C130.664 212.414 143.578 208.954 149.409 198.855C155.239 188.756 151.779 175.842 141.68 170.011C131.581 164.18 118.667 167.641 112.836 177.74C107.005 187.839 110.466 200.753 120.565 206.584Z" fill="#333236"/>
<path d="M74.6129 220.572L66.0478 188.607C64.8262 184.048 67.5319 179.361 72.0909 178.14C76.6498 176.918 81.3362 179.624 82.5578 184.183L91.1229 216.148C92.3442 220.708 89.6388 225.394 85.0798 226.615C80.5207 227.836 75.8343 225.131 74.6129 220.572Z" fill="#333236"/>
</svg>
